<svg xmlns="http://www.w3.org/2000/svg" xmlns:xlink="http://www.w3.org/1999/xlink" width="300" height="250" viewBox="0 0 300 250" role="img" aria-label="Cebia – prověřte historii vozidla podle VIN">
  <defs>
    <linearGradient id="cebiaBg2" x1="0" y1="0" x2="1" y2="1">
      <stop offset="0" stop-color="#0f172a"/>
      <stop offset="1" stop-color="#1e293b"/>
    </linearGradient>
    <clipPath id="cebiaClip2"><rect width="300" height="250" rx="16"/></clipPath>
  </defs>
  <a xlink:href="https://ehub.cz/system/scripts/click.php?a_aid=b7023ca5&amp;a_bid=67e04d9d" target="_blank">
    <g clip-path="url(#cebiaClip2)">
      <rect width="300" height="250" fill="url(#cebiaBg2)"/>
      <circle cx="280" cy="20" r="70" fill="#dc2626" opacity="0.12"/>
      <text x="282" y="28" text-anchor="end" font-family="Arial, sans-serif" font-size="10" letter-spacing="2" fill="#64748b">REKLAMA</text>

      <rect x="24" y="28" width="60" height="60" rx="14" fill="#ffffff" opacity="0.10"/>
      <g transform="translate(35,39) scale(1.55)" fill="none" stroke="#f87171" stroke-width="2" stroke-linecap="round" stroke-linejoin="round">
        <path d="M20 13c0 5-3.5 7.5-7.66 8.95a1 1 0 0 1-.67-.01C7.5 20.5 4 18 4 13V6a1 1 0 0 1 1-1c2 0 4.5-1.2 6.24-2.72a1.17 1.17 0 0 1 1.52 0C14.51 3.81 17 5 19 5a1 1 0 0 1 1 1z"/>
        <path d="m9 12 2 2 4-4"/>
      </g>

      <text x="24" y="120" font-family="Arial, sans-serif" font-size="12" font-weight="700" letter-spacing="1" fill="#f87171">KUPUJETE OJETÉ AUTO?</text>
      <text x="24" y="150" font-family="Arial, sans-serif" font-size="23" font-weight="800" fill="#ffffff">Prověřte vůz</text>
      <text x="24" y="178" font-family="Arial, sans-serif" font-size="23" font-weight="800" fill="#ffffff">podle VIN</text>
      <text x="24" y="200" font-family="Arial, sans-serif" font-size="12" fill="#cbd5e1">Tachometr · nehody · odcizení</text>

      <rect x="24" y="208" width="190" height="30" rx="10" fill="#dc2626"/>
      <text x="119" y="228" text-anchor="middle" font-family="Arial, sans-serif" font-size="14" font-weight="800" fill="#ffffff">Prověřit vozidlo  →</text>
    </g>
  </a>
</svg>
