<svg xmlns="http://www.w3.org/2000/svg" xmlns:xlink="http://www.w3.org/1999/xlink" width="300" height="250" viewBox="0 0 300 250" role="img" aria-label="ČSOB Pojišťovna – povinné ručení online">
  <defs>
    <linearGradient id="csobBg2" x1="0" y1="0" x2="1" y2="1">
      <stop offset="0" stop-color="#1e3a8a"/>
      <stop offset="1" stop-color="#312e81"/>
    </linearGradient>
    <clipPath id="csobClip2"><rect width="300" height="250" rx="16"/></clipPath>
  </defs>
  <a xlink:href="https://ehub.cz/system/scripts/click.php?a_aid=b7023ca5&amp;a_bid=f5e0f8fb" target="_blank">
    <g clip-path="url(#csobClip2)">
      <rect width="300" height="250" fill="url(#csobBg2)"/>
      <circle cx="280" cy="20" r="70" fill="#ffffff" opacity="0.07"/>
      <text x="282" y="28" text-anchor="end" font-family="Arial, sans-serif" font-size="10" letter-spacing="2" fill="#93c5fd">REKLAMA</text>

      <rect x="24" y="28" width="60" height="60" rx="14" fill="#ffffff" opacity="0.12"/>
      <g transform="translate(35,39) scale(1.55)" fill="none" stroke="#ffffff" stroke-width="2" stroke-linecap="round" stroke-linejoin="round">
        <path d="M19 17h2c.6 0 1-.4 1-1v-3c0-.9-.7-1.7-1.5-1.9C18.7 10.6 16 10 16 10s-1.3-1.4-2.2-2.3c-.5-.4-1.1-.7-1.8-.7H5c-.6 0-1.1.4-1.4.9l-1.4 2.9A3.7 3.7 0 0 0 2 12v4c0 .6.4 1 1 1h2"/>
        <circle cx="7" cy="17" r="2"/>
        <path d="M9 17h6"/>
        <circle cx="17" cy="17" r="2"/>
      </g>

      <text x="24" y="120" font-family="Arial, sans-serif" font-size="12" font-weight="700" letter-spacing="1" fill="#93c5fd">POVINNÉ RUČENÍ ONLINE</text>
      <text x="24" y="150" font-family="Arial, sans-serif" font-size="23" font-weight="800" fill="#ffffff">Pojištění auta</text>
      <text x="24" y="178" font-family="Arial, sans-serif" font-size="23" font-weight="800" fill="#ffffff">levněji</text>
      <text x="24" y="200" font-family="Arial, sans-serif" font-size="12" fill="#dbeafe">Spočítejte si cenu za 2 minuty</text>

      <rect x="24" y="208" width="190" height="30" rx="10" fill="#ffffff"/>
      <text x="119" y="228" text-anchor="middle" font-family="Arial, sans-serif" font-size="14" font-weight="800" fill="#1e3a8a">Spočítat cenu  →</text>
    </g>
  </a>
</svg>
