<svg xmlns="http://www.w3.org/2000/svg" xmlns:xlink="http://www.w3.org/1999/xlink" width="970" height="310" viewBox="0 0 970 310" role="img" aria-label="ČSOB Pojišťovna – povinné ručení a havarijní pojištění online">
  <defs>
    <linearGradient id="csobBg" x1="0" y1="0" x2="1" y2="1">
      <stop offset="0" stop-color="#1e3a8a"/>
      <stop offset="0.5" stop-color="#1e40af"/>
      <stop offset="1" stop-color="#312e81"/>
    </linearGradient>
    <clipPath id="csobClip"><rect width="970" height="310" rx="24"/></clipPath>
  </defs>
  <a xlink:href="https://ehub.cz/system/scripts/click.php?a_aid=b7023ca5&amp;a_bid=f5e0f8fb" target="_blank">
    <g clip-path="url(#csobClip)">
      <rect width="970" height="310" fill="url(#csobBg)"/>
      <circle cx="900" cy="40" r="150" fill="#ffffff" opacity="0.06"/>
      <circle cx="120" cy="300" r="120" fill="#ffffff" opacity="0.05"/>

      <!-- Reklama štítek -->
      <text x="945" y="40" text-anchor="end" font-family="Arial, sans-serif" font-size="13" letter-spacing="2" fill="#93c5fd">REKLAMA</text>

      <!-- Ikona auto -->
      <rect x="55" y="105" width="92" height="92" rx="20" fill="#ffffff" opacity="0.12"/>
      <g transform="translate(73,123) scale(2.33)" fill="none" stroke="#ffffff" stroke-width="2" stroke-linecap="round" stroke-linejoin="round">
        <path d="M19 17h2c.6 0 1-.4 1-1v-3c0-.9-.7-1.7-1.5-1.9C18.7 10.6 16 10 16 10s-1.3-1.4-2.2-2.3c-.5-.4-1.1-.7-1.8-.7H5c-.6 0-1.1.4-1.4.9l-1.4 2.9A3.7 3.7 0 0 0 2 12v4c0 .6.4 1 1 1h2"/>
        <circle cx="7" cy="17" r="2"/>
        <path d="M9 17h6"/>
        <circle cx="17" cy="17" r="2"/>
      </g>

      <!-- Texty -->
      <text x="180" y="118" font-family="Arial, sans-serif" font-size="18" font-weight="700" letter-spacing="1" fill="#93c5fd">POVINNÉ RUČENÍ ONLINE</text>
      <text x="180" y="165" font-family="Arial, sans-serif" font-size="40" font-weight="800" fill="#ffffff">Pojištění auta levněji</text>
      <text x="180" y="210" font-family="Arial, sans-serif" font-size="40" font-weight="800" fill="#ffffff">spočítáte za 2 minuty</text>
      <text x="180" y="252" font-family="Arial, sans-serif" font-size="18" fill="#dbeafe">Povinné ručení i havarijní · sjednání 100 % online</text>

      <!-- CTA -->
      <rect x="660" y="118" width="250" height="74" rx="16" fill="#ffffff"/>
      <text x="785" y="163" text-anchor="middle" font-family="Arial, sans-serif" font-size="22" font-weight="800" fill="#1e3a8a">Spočítat cenu  →</text>
    </g>
  </a>
</svg>
